<?xml version="1.0" encoding="utf-8"?>
<svg
  version="1.1"
  id="DLR-KI-shild"
  xmlns="http://www.w3.org/2000/svg"
  xmlns:xlink="http://www.w3.org/1999/xlink"
  x="0px" y="0px"
	viewBox="0 0 441.4 518.4"
  style="enable-background:new 0 0 441.4 518.4;"
  xml:space="preserve"
>
<style type="text/css">
  path {
    fill: currentColor;
  }
</style>
<g>
	<path id="shield-outer" d="M440.2,95.7c-0.1,2.6-0.3,5.1-0.4,7.7c0,0.3,0,0.6,0,1c-0.2,2.6-0.3,5.1-0.5,7.7c0,0.3,0,0.6,0,1
		c-0.1,2.4-0.3,4.8-0.4,7.2c0,0.3,0,0.6,0,1c-0.1,2.6-0.3,5.1-0.4,7.7c0,0.3,0,0.6,0,1c-0.5,4.8-0.9,9.7-1.4,14.5
		c-0.2,2.2-0.3,4.4-0.5,6.6c-0.2,2-0.6,3.9-0.8,5.9c-0.1,0.6,0,1.3-0.1,1.9c-0.3,2.2-0.5,4.4-0.8,6.6c-0.2,1.5-0.5,2.9-0.6,4.4
		c-0.2,2-0.3,3.9-0.5,5.9c-0.3,2.7-0.6,5.3-1,8c-0.6,4.3-1.2,8.5-1.9,12.7c-0.5,3.1-1.3,6.2-1.9,9.4c-1.7,8.4-3,16.8-5,25.1
		c-2.5,10.4-5.3,20.8-8.2,31c-2.6,9-5.5,17.8-8.5,26.7c-13.1,38-30.5,73.8-52.8,107.2c-17.3,25.9-36.8,50-59.3,71.5
		c-12.8,12.2-26.3,23.7-41.2,33.3c-8.7,5.7-17.8,10.7-26.8,15.9c-5,2.9-10.2,2.3-15.1-0.4c-4.5-2.5-8.9-5.1-13.2-7.8
		c-18.7-11.6-35.9-25.1-52-40.1c-25.4-23.8-46.7-50.8-65.4-80.1c-19.6-30.7-35.1-63.5-47-97.9c-2.5-7.1-5-14.2-7.1-21.4
		c-5.2-17.7-9.8-35.5-13.2-53.6c-1.2-6.8-2.6-13.6-3.7-20.5c-0.5-2.8-0.7-5.7-1.1-8.5c-0.9-5.7-1.8-11.4-2.6-17.2
		c-0.9-6-1.7-12-2.6-18.1c-0.6-4.1-1.4-8.2-1.8-12.4c-0.4-4.3-0.5-8.6-0.6-12.9C1.1,111.3,0.7,97,0.4,82.7C0.3,77.6,0.1,72.4,0,67.3
		c-0.1-3.9,0.9-5.2,4.7-6.3c5.6-1.7,11.1-3.4,16.7-5.1c22.7-6.6,45.3-13.3,68-19.8c40.2-11.6,80.4-23.1,120.7-34.6
		c3.9-1.1,7.9-1.9,12-1.5c3.9,0.4,7.9,0.9,11.7,2c15,4.4,30.1,8.7,45.1,13.1c6.4,1.9,12.8,3.7,19.3,5.6c24.2,7,48.3,14,72.5,21
		c7.3,2.1,14.7,4.2,22.1,6.4c5.2,1.5,10.4,3.2,15.6,4.7c7.3,2.1,14.6,4,21.9,6c1.2,0.3,2.3,0.5,3.5,0.8c0.5,0.1,1.1,0.2,1.6,0.4
		c3.6,0.9,5.5,3.3,5.8,7c0.2,2.5,0.2,4.9,0.1,7.4c-0.1,3.3-0.4,6.5-0.6,9.8c-0.2,3.5-0.4,7-0.6,10.5C440.2,95,440.2,95.3,440.2,95.7
		z M422.6,80.3c-0.2-3-1.6-5.2-4.2-6.5c-1.3-0.7-2.8-1.2-4.2-1.6c-4.5-1.2-9-2.2-13.4-3.5c-25.1-7.3-50.1-14.7-75.2-22
		c-12.1-3.5-24.2-7-36.4-10.4c-15.1-4.3-30.3-8.4-45.4-12.6c-6.5-1.8-13-3.7-19.8-4.4c-5.3-0.5-10.6-0.3-15.7,1
		c-11,2.9-21.8,6.1-32.7,9.2c-13.3,3.8-26.5,7.6-39.8,11.4C117.5,46,99.4,51.2,81.3,56.3c-13,3.7-25.9,7.4-38.9,11.1
		C36,69.2,29.6,71,23.3,73c-3.8,1.2-5.5,3.6-5.5,7.5c0,2.7,0.3,5.4,0.4,8.1c0.3,7.7,0.7,15.5,1,23.2c0.2,4.5,0.3,8.9,0.5,13.4
		c0.3,5.1,0.5,10.2,1,15.3c0.6,7,1.2,14,1.9,21c0.6,5.9,1.2,11.9,2.1,17.8c1.6,10.2,3.3,20.3,5.1,30.4c3.4,18.9,8.1,37.6,13.8,56
		c7.2,23.4,16.2,46.2,27.1,68.1c7.4,14.8,15.1,29.4,22.7,44.1c4.3,8.3,9.5,15.9,15.4,23.1c5.5,6.7,11,13.5,16.7,20.1
		c7,8.2,14.1,16.3,21.5,24.2c8,8.6,16.6,16.7,25.8,24c6.6,5.2,13.2,10.3,20.2,15c6.3,4.3,12.9,8.2,19.6,12.1
		c5.2,3,10.4,2.4,15.5-0.5c8.3-4.8,16.4-10,24.2-15.5c10.7-7.5,20.8-15.7,30.2-24.7c7.1-6.8,14-13.8,20.7-21
		c5.7-6.1,11.1-12.4,16.3-18.9c6.7-8.4,13.2-16.9,19.4-25.6c8.8-12.2,16.8-24.9,23.7-38.3c8.2-16,15.4-32.3,21.8-49.1
		c6.7-17.6,12.4-35.4,17.2-53.6c4-15.1,7-30.3,9.6-45.6c2.2-13.3,4.6-26.5,6.7-39.8c1.1-7.2,1.9-14.4,2.7-21.6
		c0.6-5.9,1.1-11.9,1.4-17.9c0.3-6.3,0.4-12.6,0.6-18.9c0-1.4,0.1-2.9,0.1-4.3c0.1-0.1,0.1-0.1,0.1-0.2c0-0.1-0.1-0.3-0.1-0.4
		c0-6.5,0-13.1,0-19.6c0-0.1,0.1-0.1,0.1-0.2C422.7,80.5,422.6,80.4,422.6,80.3z"/>
	<path id="shield-inner" d="M398.2,103.4c-0.5,7.8-1,15.6-1.5,23.4c-0.2,2.6-0.3,5.3-0.5,7.9c-0.6,7-1.2,14-1.9,21c-0.6,6.7-1.2,13.3-2,20
		c-1.8,15-4.1,29.9-7.4,44.6c-4,17.6-9.1,34.9-15,52c-4.9,14.1-10.4,28-16.5,41.7c-9.6,21.8-20.9,42.6-34.3,62.3
		c-7.7,11.3-16,22.1-24.9,32.6c-8.7,10.2-18.1,19.9-27.9,29.1c-11.5,10.8-23.7,20.7-36.5,29.9c-1.2,0.9-2.5,1.7-3.9,2.4
		c-3.3,1.8-6.8,2.2-10.1,0.2c-3.7-2.2-7.3-4.5-10.9-7c-8.3-5.8-16.3-12.1-24-18.8c-8.2-7.2-16.2-14.7-23.6-22.8
		c-6.2-6.7-12.1-13.6-17.8-20.8c-7.8-9.8-14.8-20.1-21.5-30.6c-7.3-11.4-14.2-23.2-20.4-35.3c-4.5-8.7-8.8-17.6-12.8-26.6
		c-6.9-15.2-12.7-30.9-17.7-46.8c-4.7-14.9-8.7-29.9-11.8-45.2c-2-9.8-3.7-19.6-5.3-29.4c-1.4-8.7-2.6-17.5-3.7-26.3
		c-0.7-5.8-1.1-11.6-1.6-17.4c-0.6-7.5-1-15-1.4-22.5c-0.4-6.8-0.6-13.6-0.9-20.3c0-0.7,0-1.4,0-2.2c0.1-3.7,1.9-6.2,5.4-7.4
		c3.4-1.1,6.9-2.2,10.3-3.1c17.9-5.1,35.8-10,53.7-15.2c19.6-5.7,39.2-11.4,58.8-17.3c9.6-2.8,19.1-5.9,28.6-8.8
		c5.1-1.6,10.3-2.7,15.7-3.1c9.5-0.7,18.6,0.9,27.6,3.5c21.3,6.1,42.6,12.4,64,18.5c20.5,5.9,41,11.9,61.4,17.7
		c7.2,2.1,14.5,4,21.7,6c1,0.3,2,0.6,3,1c3.4,1.2,5.3,3.8,5.4,7.4c0.1,1.8,0,3.7,0,5.5C398,103.4,398.1,103.4,398.2,103.4z
		 M233.7,306.9c0,0,0,0.1,0,0.1c5-0.2,10.1-0.4,15.1-0.6c1-0.1,2.1-0.3,3-0.6c1.7-0.6,2.9-1.8,2.6-3.8c-0.2-1.6-0.3-3.2-0.8-4.7
		c-2.6-8.4-5.3-16.7-8.1-25.1c-4.9-14.9-9.8-29.9-14.8-44.8c-7.6-23-15.3-45.9-23-68.9c-0.8-2.3-1.8-4.7-3.3-6.6
		c-2.5-3.4-6.1-4.8-10.2-4.8c-6.6-0.1-13.1,0-19.7-0.1c-2.3,0-4.6-0.1-6.9,0c-3.2,0.1-5.7,1.7-7.3,4.3c-1.4,2.2-2.6,4.6-3.4,7.1
		c-4.2,12.7-8.2,25.4-12.3,38.1c-4.3,13.4-8.7,26.7-13.1,40.1c-4.6,14.2-9.3,28.4-13.8,42.6c-2.1,6.5-3.9,13-5.7,19.5
		c-1.2,4.4,0.6,6.7,5,7.5c0.4,0.1,0.8,0.1,1.2,0.1c7.4,0.2,14.9,0.3,22.3,0.5c3.8,0.1,6.5-1.6,7.9-5.1c0.9-2.2,1.6-4.5,2.2-6.8
		c1.6-5.3,3.1-10.7,4.8-16.1c1.5-4.8,4-6.6,9-6.6c3,0,6.1,0.4,9.1,0.4c7.8-0.1,15.7-0.3,23.5-0.4c4,0,7.2,1.7,9.5,5.1
		c2,3,3.2,6.3,4.1,9.7c1,3.8,1.6,7.7,2.5,11.4c1.3,5.2,5.3,8.3,10.6,8.3C227.2,306.9,230.5,306.9,233.7,306.9z M270.3,225.3
		c0.4,20.3-0.6,44.6,0.5,68.9c0.1,1.6,0.3,3.2,0.6,4.7c0.8,3.4,2.8,5.7,6.2,6.7c1.1,0.3,2.2,0.6,3.3,0.7c6,0.2,12,0.4,18,0.5
		c0.8,0,1.6-0.2,2.4-0.4c3.1-0.7,4.9-2.9,5.1-6.1c0.1-1.6,0.1-3.2,0.1-4.8c0-43.3,0-86.7,0-130c0-1.8,0.1-3.5,0.1-5.3
		c0-2.8,0.1-5.6-0.1-8.3c-0.3-3.1-2.3-4.8-5.4-5c-1.3-0.1-2.6,0-3.8,0c-4.9,0-9.8,0.1-14.6-0.1c-2.2-0.1-4.4-0.4-6.6,0.1
		c-2.7,0.6-4.5,2.1-4.9,4.8c-0.3,1.7-0.5,3.5-0.5,5.2C270.3,178.5,270.3,199.9,270.3,225.3z"/>
	<path id="letter-A-hole" d="M183.2,184.1c0.4,1.1,0.6,1.7,0.8,2.3c2.4,9.2,4.7,18.4,7.1,27.6c1.8,7,3.7,14,5.6,21c0.2,0.6,0.3,1.2,0.5,1.9
		c0.9,3.7-0.3,5.1-4,5.2c-5.5,0.1-11,0.3-16.5,0.4c-1.5,0-3-0.2-4.5-0.5c-2.7-0.6-3.6-1.8-3.6-4.5c-0.1-3.7,0.7-7.3,1.6-10.8
		c3.4-12.4,6.7-24.8,10.2-37.2C180.8,187.6,181.4,185.9,183.2,184.1z"/>
</g>
</svg>
